# xmcd CD database file
#
# Track frame offsets:
#	150
#	16800
#	33259
#	49900
#
# Disc length: 882 seconds
#
# Revision: 1
# Processed by: cddbd v1.5.2PL0 Copyright (c) Steve Scherf et al.
# Submitted via: CDex 1.70beta2
#
DISCID=26037004
DTITLE=絶望少女達 - 絶世美人
DYEAR=2007
DGENRE=Anime
TTITLE0=絶世美人
TTITLE1=かげろう
TTITLE2=絶世美人（歌無し）
TTITLE3=かげろう（可符番なし）
EXTD=YEAR: 2007
EXTT0=
EXTT1=
EXTT2=
EXTT3=
PLAYORDER=
